<?xml version="1.0" encoding="UTF-8"?>
<svg xmlns="http://www.w3.org/2000/svg" xmlns:xlink="http://www.w3.org/1999/xlink" width="75pt" height="74.999997pt" viewBox="0 0 75 74.999997" version="1.2">
<defs>
<clipPath id="clip1">
  <path d="M 15.515625 0 L 59.765625 0 L 59.765625 75 L 15.515625 75 Z M 15.515625 0 "/>
</clipPath>
</defs>
<g id="surface1">
<g clip-path="url(#clip1)" clip-rule="nonzero">
<path style=" stroke:none;fill-rule:nonzero;fill:rgb(100%,100%,100%);fill-opacity:1;" d="M 59.347656 6.566406 C 59.347656 5.453125 58.9375 4.457031 58.179688 3.636719 L 55.734375 1.171875 C 54.976562 0.410156 53.925781 0 52.820312 0 C 51.710938 0 50.722656 0.410156 49.964844 1.171875 L 16.75 34.597656 C 15.992188 35.359375 15.585938 36.414062 15.585938 37.53125 C 15.585938 38.644531 15.992188 39.640625 16.75 40.460938 L 49.90625 73.828125 C 50.664062 74.589844 51.710938 75 52.761719 75 C 53.867188 75 54.859375 74.589844 55.675781 73.828125 L 58.121094 71.363281 C 59.695312 69.78125 59.695312 67.140625 58.121094 65.558594 L 30.269531 37.53125 L 58.179688 9.441406 C 58.9375 8.679688 59.347656 7.683594 59.347656 6.566406 Z M 59.347656 6.566406 "/>
</g>
</g>
</svg>
