<?xml version="1.0" encoding="UTF-8"?>
<svg xmlns="http://www.w3.org/2000/svg" xmlns:xlink="http://www.w3.org/1999/xlink" width="375pt" height="374.999991pt" viewBox="0 0 375 374.999991" version="1.2">
<g id="surface1">
<path style=" stroke:none;fill-rule:nonzero;fill:rgb(0%,0%,0%);fill-opacity:1;" d="M 201.703125 168.085938 L 201.703125 167.503906 C 201.582031 167.691406 201.453125 167.898438 201.324219 168.085938 Z M 201.703125 168.085938 "/>
<path style=" stroke:none;fill-rule:nonzero;fill:rgb(0%,0%,0%);fill-opacity:1;" d="M 347.40625 -2.074219 L 27.667969 -2.074219 C 12.359375 -2.074219 -0.046875 10.039062 -0.046875 24.949219 L -0.046875 348.164062 C -0.046875 363.082031 12.367188 375.183594 27.667969 375.183594 L 347.40625 375.183594 C 362.734375 375.183594 375.136719 363.070312 375.136719 348.164062 L 375.136719 24.949219 C 375.144531 10.023438 362.726562 -2.074219 347.40625 -2.074219 Z M 113.675781 313.742188 L 57.007812 313.742188 L 57.007812 143.390625 L 113.683594 143.390625 L 113.683594 313.742188 Z M 85.347656 120.121094 L 84.96875 120.121094 C 65.960938 120.121094 53.660156 107.027344 53.660156 90.691406 C 53.660156 73.980469 66.339844 61.257812 85.71875 61.257812 C 105.113281 61.257812 117.03125 73.980469 117.410156 90.691406 C 117.410156 107.035156 105.097656 120.121094 85.347656 120.121094 Z M 318.019531 313.742188 L 261.355469 313.742188 L 261.355469 222.585938 C 261.355469 199.695312 253.15625 184.070312 232.652344 184.070312 C 217 184.070312 207.675781 194.613281 203.570312 204.785156 C 202.074219 208.417969 201.710938 213.492188 201.710938 218.589844 L 201.710938 313.734375 L 145.042969 313.734375 C 145.042969 313.734375 145.785156 159.347656 145.042969 143.375 L 201.710938 143.375 L 201.710938 167.496094 C 209.242188 155.890625 222.707031 139.363281 252.789062 139.363281 C 290.070312 139.363281 318.035156 163.71875 318.035156 216.039062 Z M 318.019531 313.742188 "/>
</g>
</svg>
