<?xml version="1.0" encoding="UTF-8"?>
<svg xmlns="http://www.w3.org/2000/svg" xmlns:xlink="http://www.w3.org/1999/xlink" width="75pt" height="74.999997pt" viewBox="0 0 75 74.999997" version="1.2">
<defs>
<clipPath id="clip1">
  <path d="M 15.234375 0 L 59.484375 0 L 59.484375 75 L 15.234375 75 Z M 15.234375 0 "/>
</clipPath>
</defs>
<g id="surface1">
<g clip-path="url(#clip1)" clip-rule="nonzero">
<path style=" stroke:none;fill-rule:nonzero;fill:rgb(100%,100%,100%);fill-opacity:1;" d="M 15.652344 68.433594 C 15.652344 69.546875 16.0625 70.542969 16.820312 71.363281 L 19.265625 73.828125 C 20.023438 74.589844 21.074219 75 22.179688 75 C 23.289062 75 24.277344 74.589844 25.035156 73.828125 L 58.25 40.402344 C 59.007812 39.640625 59.414062 38.585938 59.414062 37.46875 C 59.414062 36.355469 59.007812 35.359375 58.25 34.539062 L 25.09375 1.171875 C 24.335938 0.410156 23.289062 0 22.238281 0 C 21.132812 0 20.140625 0.410156 19.324219 1.171875 L 16.878906 3.636719 C 15.304688 5.21875 15.304688 7.859375 16.878906 9.441406 L 44.730469 37.46875 L 16.820312 65.558594 C 16.0625 66.320312 15.652344 67.316406 15.652344 68.433594 Z M 15.652344 68.433594 "/>
</g>
</g>
</svg>
