<?xml version="1.0" encoding="UTF-8"?>
<svg class="foxy" xmlns="http://www.w3.org/2000/svg" xmlns:xlink="http://www.w3.org/1999/xlink" width="375pt" height="374.999991pt" viewBox="0 0 375 374.999991" version="1.2">
<defs>
<clipPath id="clip1">
  <path d="M 12 232 L 363 232 L 363 356.644531 L 12 356.644531 Z M 12 232 "/>
</clipPath>
</defs>
<g id="surface1">
<path style=" stroke:none;fill-rule:nonzero;fill:rgb(95.689392%,56.469727%,4.708862%);fill-opacity:1;" d="M 139.574219 103.25 C 146.460938 130.890625 141.417969 154.351562 113.8125 161.234375 C 86.183594 168.113281 48.8125 213.117188 21.90625 146.171875 C 6.304688 107.386719 -7.320312 26.082031 8.167969 22.21875 C 23.65625 18.363281 132.699219 75.613281 139.574219 103.25 Z M 139.574219 103.25 "/>
<path style=" stroke:none;fill-rule:nonzero;fill:rgb(62.748718%,1.568604%,11.759949%);fill-opacity:1;" d="M 118.707031 109.042969 C 128.753906 125.152344 99.546875 156.8125 83.460938 166.878906 C 67.367188 176.941406 53.125 161.097656 37.269531 120.648438 C 30.339844 102.957031 19.835938 54.976562 25.726562 51.292969 C 31.609375 47.617188 108.652344 92.933594 118.707031 109.042969 Z M 118.707031 109.042969 "/>
<path style=" stroke:none;fill-rule:nonzero;fill:rgb(95.689392%,56.469727%,4.708862%);fill-opacity:1;" d="M 235.078125 103.25 C 228.203125 130.890625 233.226562 154.351562 260.855469 161.234375 C 288.484375 168.113281 325.84375 213.117188 352.757812 146.171875 C 368.351562 107.386719 381.976562 26.082031 366.488281 22.21875 C 351 18.363281 241.964844 75.613281 235.078125 103.25 Z M 235.078125 103.25 "/>
<path style=" stroke:none;fill-rule:nonzero;fill:rgb(62.748718%,1.568604%,11.759949%);fill-opacity:1;" d="M 255.957031 109.042969 C 245.910156 125.152344 275.117188 156.8125 291.203125 166.878906 C 307.289062 176.941406 321.53125 161.097656 337.386719 120.648438 C 344.3125 102.96875 354.820312 54.988281 348.9375 51.300781 C 343.046875 47.617188 266.015625 92.933594 255.957031 109.042969 Z M 255.957031 109.042969 "/>
<path style=" stroke:none;fill-rule:nonzero;fill:rgb(95.689392%,56.469727%,4.708862%);fill-opacity:1;" d="M 187.402344 97.523438 C 118.101562 74.40625 67.355469 118.195312 25.726562 201.554688 L 48.824219 201.554688 C 48.824219 201.554688 25.726562 224.660156 14.171875 259.339844 C 37.269531 247.777344 48.824219 247.777344 48.824219 247.777344 C 48.824219 247.777344 37.269531 270.902344 37.269531 282.464844 C 71.917969 259.339844 106.558594 259.339844 129.65625 294.015625 C 152.75 328.695312 187.402344 294.015625 187.402344 247.785156 Z M 187.402344 97.523438 "/>
<path style=" stroke:none;fill-rule:nonzero;fill:rgb(95.689392%,56.469727%,4.708862%);fill-opacity:1;" d="M 187.402344 97.523438 C 256.691406 74.40625 307.445312 118.195312 349.066406 201.546875 L 325.980469 201.546875 C 325.980469 201.546875 349.066406 224.652344 360.609375 259.328125 C 337.523438 247.765625 325.980469 247.765625 325.980469 247.765625 C 325.980469 247.765625 337.523438 270.890625 337.523438 282.453125 C 302.871094 259.328125 268.234375 259.328125 245.136719 294.007812 C 222.03125 328.683594 187.390625 294.007812 187.390625 247.777344 Z M 187.402344 97.523438 "/>
<path style=" stroke:none;fill-rule:nonzero;fill:rgb(95.689392%,56.469727%,4.708862%);fill-opacity:1;" d="M 187.402344 87.414062 L 187.371094 87.414062 C 68.757812 87.425781 86.851562 133.175781 99.566406 209.242188 C 112.273438 285.34375 127.300781 339.335938 187.402344 339.335938 C 247.480469 339.335938 262.488281 285.34375 275.214844 209.242188 C 287.90625 133.164062 305.992188 87.425781 187.402344 87.414062 Z M 187.402344 87.414062 "/>
<g clip-path="url(#clip1)" clip-rule="nonzero">
<path style=" stroke:none;fill-rule:nonzero;fill:rgb(94.509888%,56.079102%,14.898682%);fill-opacity:1;" d="M 362.25 273.34375 C 361.371094 213.558594 264.914062 234.117188 256.691406 242.214844 C 245.136719 253.566406 245.09375 322.914062 187.378906 322.914062 C 129.65625 322.914062 118.101562 253.566406 106.558594 242.214844 C 98.324219 234.117188 9.925781 227.519531 12.101562 273.34375 C 35.199219 261.78125 48.8125 265.132812 48.8125 265.132812 C 48.8125 265.132812 33.898438 273.78125 36.085938 294.289062 C 69.660156 279.019531 85.355469 281.199219 103.671875 290.363281 C 116.363281 328.308594 147.6875 356.691406 187.402344 356.691406 C 227.09375 356.691406 258 327.429688 270.683594 289.492188 C 285.941406 276.402344 309.484375 280.328125 337.824219 293.847656 C 340.882812 274.652344 325.980469 265.132812 325.980469 265.132812 C 325.980469 265.132812 339.164062 261.78125 362.25 273.34375 Z M 362.25 273.34375 "/>
</g>
<path style=" stroke:none;fill-rule:nonzero;fill:rgb(100%,85.099792%,51.368713%);fill-opacity:1;" d="M 360.617188 259.328125 C 351.15625 230.863281 264.914062 216.765625 256.691406 224.859375 C 245.136719 236.214844 245.09375 305.558594 187.378906 305.558594 C 129.65625 305.558594 118.101562 236.214844 106.558594 224.859375 C 98.324219 216.765625 23.65625 230.863281 14.171875 259.328125 C 37.269531 247.765625 48.824219 247.765625 48.824219 247.765625 C 48.824219 247.765625 37.269531 270.890625 37.269531 282.453125 C 65.210938 263.8125 93.140625 260.230469 115.015625 277.71875 C 127.707031 315.664062 147.6875 339.335938 187.402344 339.335938 C 227.09375 339.335938 247.050781 315.675781 259.734375 277.742188 C 281.628906 260.21875 309.582031 263.8125 337.53125 282.453125 C 337.53125 270.890625 325.988281 247.765625 325.988281 247.765625 C 325.988281 247.765625 337.53125 247.777344 360.617188 259.328125 Z M 360.617188 259.328125 "/>
<path style=" stroke:none;fill-rule:nonzero;fill:rgb(15.289307%,16.859436%,16.859436%);fill-opacity:1;" d="M 114.136719 178.640625 C 114.136719 178.640625 114.136719 162.929688 129.832031 162.929688 C 145.53125 162.929688 145.53125 178.640625 145.53125 178.640625 L 145.53125 194.351562 C 145.53125 194.351562 145.53125 210.0625 129.832031 210.0625 C 114.136719 210.0625 114.136719 194.351562 114.136719 194.351562 Z M 229.25 178.640625 C 229.25 178.640625 229.25 162.929688 244.949219 162.929688 C 260.644531 162.929688 260.644531 178.640625 260.644531 178.640625 L 260.644531 194.351562 C 260.644531 194.351562 260.644531 210.0625 244.949219 210.0625 C 229.25 210.0625 229.25 194.351562 229.25 194.351562 Z M 155.355469 291.839844 C 144.671875 294.015625 176.714844 333.398438 187.402344 333.398438 C 198.074219 333.398438 230.121094 294.015625 219.445312 291.839844 C 208.761719 289.660156 166.042969 289.660156 155.355469 291.839844 Z M 155.355469 291.839844 "/>
</g>
</svg>
